<svg xmlns="http://www.w3.org/2000/svg" viewBox="0 0 110 110">
  <rect width="110" height="110" rx="20" fill="#142639"/>
  <g fill="#ECEDEE" transform="translate(5 0)">
    <path d="M76.75,68.8l-3.46,3.46c-2.81,2.73-7.26,2.74-10.08.05-.05-.04-.09-.08-.14-.13l-3.28-3.29-.87-.87c-4.06-4.05-10.57-4.14-14.73-.28-.1.08-.21.18-.3.28l-4.78,4.78c-.09.09-.2.2-.28.3-2.83,1.87-6.67,1.56-9.15-.93l-3.29-3.29c-2.6-2.6-2.82-6.66-.69-9.49l4.78-4.78c4.16-4.16,4.16-10.88,0-15.04l-.5-.5c-.05-.04-.09-.08-.14-.13l-3.28-3.29c-2.84-2.84-2.84-7.46,0-10.3l3.28-3.28c2.86-2.84,7.47-2.84,10.32,0l3.28,3.28.64.64c4.13,4.13,10.85,4.14,15,.03,0-.01,0-.03.03-.03l4.78-4.78s.01-.03.03-.03c2.86-2.11,6.9-1.87,9.48.71l3.29,3.29c2.48,2.49,2.79,6.33.92,9.16-.01.01-.03.01-.03.03-.09.08-.18.16-.26.25l-4.8,4.78c-.09.09-.2.2-.28.3-2.82,1.86-6.67,1.55-9.15-.93l-4.04-4.04c-4-4-10.37-4.16-14.55-.43-.17.12-.33.28-.48.43l-4.78,4.78c-.17.17-.33.34-.47.51-3.67,4.17-3.51,10.54.47,14.51l.75.76,3.29,3.29.75.73c4.16,4.16,10.88,4.16,15.04,0l4.02-4.02c2.84-2.84,7.47-2.84,10.32,0l3.28,3.28c2.82,2.82,2.84,7.37.09,10.21Z"/>
    <path d="M43.03,85.56l3.46,3.46c2.81,2.73,7.26,2.74,10.08.05.05-.04.09-.08.14-.13l3.28-3.29.87-.87c4.06-4.05,10.57-4.14,14.73-.28.1.08.21.18.3.28l4.78,4.78c.09.09.2.2.28.3,2.83,1.87,6.67,1.56,9.15-.93l3.29-3.29c2.6-2.6,2.82-6.66.69-9.49l-4.78-4.78c-4.16-4.16-4.16-10.88,0-15.04l.5-.5c.05-.04.09-.08.14-.13l3.28-3.29c2.84-2.84,2.84-7.46,0-10.3l-3.28-3.28c-2.86-2.84-7.47-2.84-10.32,0l-3.28,3.28-.64.64c-4.13,4.13-10.85,4.14-15,.03,0-.01,0-.03-.03-.03l-4.78-4.78s-.01-.03-.03-.03c-2.86-2.11-6.9-1.87-9.48.71l-3.29,3.29c-2.48,2.49-2.79,6.33-.92,9.16.01.01.03.01.03.03.09.08.18.16.26.25l4.8,4.78c.09.09.2.2.28.3,2.82,1.86,6.67,1.55,9.15-.93l4.04-4.04c4-4,10.37-4.16,14.55-.43.17.12.33.28.48.43l4.78,4.78c.17.17.33.34.47.51,3.67,4.17,3.51,10.54-.47,14.51l-.75.76-3.29,3.29-.75.73c-4.16,4.16-10.88,4.16-15.04,0l-4.02-4.02c-2.84-2.84-7.47-2.84-10.32,0l-3.28,3.28c-2.82,2.82-2.84,7.37-.09,10.21Z"/>
  </g>
</svg>
