<?xml version="1.0" encoding="UTF-8"?>
<svg id="Camada_1" xmlns="http://www.w3.org/2000/svg" version="1.1" viewBox="0 0 511.49 110.84">
  <!-- Generator: Adobe Illustrator 30.0.0, SVG Export Plug-In . SVG Version: 2.1.1 Build 123)  -->
  <defs>
    <style>
      .st0 {
        fill: #fff;
      }
    </style>
  </defs>
  <g>
    <path class="st0" d="M171.87,87.25h-6.37V29.49h-3.55c-6,0-11.22.73-15.65,2.18-4.43,1.45-8.11,3.62-11.05,6.5-2.94,2.88-5.14,6.44-6.59,10.69-1.46,4.25-2.18,9.19-2.18,14.83v23.56h-6.37v-22.74c0-13.4,3.55-23.57,10.64-30.52,7.1-6.94,17.5-10.42,31.2-10.42h9.92v63.67ZM171.15,66.92v5.91h-48.67v-5.91h48.67Z"/>
    <path class="st0" d="M180.15,23.58h6.37v63.67h-6.37V23.58Z"/>
    <path class="st0" d="M201.25,55.42c0,4.13.64,7.87,1.91,11.23,1.27,3.37,3.09,6.25,5.46,8.64,2.37,2.4,5.19,4.23,8.46,5.5,3.27,1.27,6.91,1.91,10.92,1.91,6.37,0,11.61-1.55,15.74-4.64,4.12-3.09,7.03-7.43,8.73-13.01h6.55c-.91,3.58-2.27,6.79-4.09,9.64-1.82,2.85-4.03,5.28-6.64,7.28-2.61,2-5.61,3.53-9.01,4.59-3.4,1.06-7.16,1.59-11.28,1.59-4.97,0-9.49-.79-13.55-2.37-4.06-1.58-7.55-3.79-10.46-6.64-2.91-2.85-5.16-6.29-6.73-10.32-1.58-4.03-2.37-8.51-2.37-13.42s.79-9.38,2.37-13.42c1.58-4.03,3.82-7.47,6.73-10.32,2.91-2.85,6.4-5.06,10.46-6.64,4.06-1.58,8.58-2.37,13.55-2.37,4.12,0,7.88.53,11.28,1.59,3.4,1.06,6.4,2.59,9.01,4.59,2.61,2,4.82,4.43,6.64,7.28,1.82,2.85,3.18,6.06,4.09,9.64h-6.55c-1.7-5.58-4.61-9.91-8.73-13.01-4.12-3.09-9.37-4.64-15.74-4.64-4,0-7.64.64-10.92,1.91-3.27,1.27-6.09,3.11-8.46,5.5-2.37,2.4-4.18,5.28-5.46,8.64-1.27,3.37-1.91,7.11-1.91,11.23Z"/>
    <path class="st0" d="M269.39,42c1.58-4.03,3.82-7.47,6.73-10.32,2.91-2.85,6.4-5.06,10.46-6.64,4.06-1.58,8.58-2.37,13.55-2.37s9.49.79,13.55,2.37c4.06,1.58,7.55,3.79,10.46,6.64,2.91,2.85,5.15,6.29,6.73,10.32,1.58,4.03,2.37,8.5,2.37,13.42s-.79,9.38-2.37,13.42c-1.58,4.03-3.82,7.47-6.73,10.32-2.91,2.85-6.4,5.06-10.46,6.64-4.06,1.58-8.58,2.37-13.55,2.37s-9.49-.79-13.55-2.37c-4.06-1.58-7.55-3.79-10.46-6.64-2.91-2.85-5.16-6.29-6.73-10.32-1.58-4.03-2.37-8.51-2.37-13.42s.79-9.38,2.37-13.42ZM275.3,66.65c1.27,3.37,3.09,6.25,5.46,8.64,2.37,2.4,5.19,4.23,8.46,5.5,3.27,1.27,6.91,1.91,10.92,1.91s7.64-.64,10.92-1.91c3.27-1.27,6.09-3.11,8.46-5.5,2.36-2.39,4.18-5.28,5.46-8.64,1.27-3.37,1.91-7.11,1.91-11.23s-.64-7.87-1.91-11.23c-1.27-3.37-3.09-6.24-5.46-8.64-2.37-2.39-5.19-4.23-8.46-5.5-3.28-1.27-6.91-1.91-10.92-1.91s-7.64.64-10.92,1.91c-3.27,1.27-6.09,3.11-8.46,5.5-2.37,2.4-4.18,5.28-5.46,8.64-1.27,3.37-1.91,7.11-1.91,11.23s.64,7.87,1.91,11.23Z"/>
    <path class="st0" d="M347.98,87.25h-6.37v-38.02c0-4,.67-7.64,2-10.92,1.33-3.27,3.24-6.06,5.73-8.37,2.49-2.3,5.49-4.09,9.01-5.37,3.52-1.27,7.43-1.91,11.73-1.91s8.17.62,11.6,1.86c3.43,1.24,6.35,3.02,8.78,5.32,2.42,2.31,4.29,5.09,5.59,8.37,1.3,3.27,1.96,6.94,1.96,11.01v38.02h-6.37v-38.39c0-3.15-.52-5.97-1.55-8.46-1.03-2.49-2.49-4.61-4.37-6.37-1.88-1.76-4.18-3.11-6.91-4.05-2.73-.94-5.79-1.41-9.19-1.41s-6.43.47-9.1,1.41c-2.67.94-4.93,2.27-6.78,4-1.85,1.73-3.28,3.85-4.28,6.37-1,2.52-1.5,5.35-1.5,8.5v38.39Z"/>
    <path class="st0" d="M406.29,23.58h6.37v63.67h-6.37V23.58Z"/>
    <path class="st0" d="M423.39,42c1.58-4.03,3.82-7.47,6.73-10.32,2.91-2.85,6.4-5.06,10.46-6.64,4.06-1.58,8.58-2.37,13.55-2.37s9.49.79,13.55,2.37c4.06,1.58,7.55,3.79,10.46,6.64,2.91,2.85,5.15,6.29,6.73,10.32,1.58,4.03,2.37,8.5,2.37,13.42s-.79,9.38-2.37,13.42c-1.58,4.03-3.82,7.47-6.73,10.32-2.91,2.85-6.4,5.06-10.46,6.64-4.06,1.58-8.58,2.37-13.55,2.37s-9.49-.79-13.55-2.37c-4.06-1.58-7.55-3.79-10.46-6.64-2.91-2.85-5.16-6.29-6.73-10.32-1.58-4.03-2.37-8.51-2.37-13.42s.79-9.38,2.37-13.42ZM429.3,66.65c1.27,3.37,3.09,6.25,5.46,8.64,2.37,2.4,5.19,4.23,8.46,5.5,3.27,1.27,6.91,1.91,10.92,1.91s7.64-.64,10.92-1.91c3.27-1.27,6.09-3.11,8.46-5.5,2.36-2.39,4.18-5.28,5.46-8.64,1.27-3.37,1.91-7.11,1.91-11.23s-.64-7.87-1.91-11.23c-1.27-3.37-3.09-6.24-5.46-8.64-2.37-2.39-5.19-4.23-8.46-5.5-3.28-1.27-6.91-1.91-10.92-1.91s-7.64.64-10.92,1.91c-3.27,1.27-6.09,3.11-8.46,5.5-2.37,2.4-4.18,5.28-5.46,8.64-1.27,3.37-1.91,7.11-1.91,11.23s.64,7.87,1.91,11.23Z"/>
    <polygon class="st0" points="487.24 82.43 427.88 66.51 426.47 71.79 487.24 88.09 487.24 82.43"/>
  </g>
  <g>
    <path class="st0" d="M76.75,68.8l-3.46,3.46c-2.81,2.73-7.26,2.74-10.08.05-.05-.04-.09-.08-.14-.13l-3.28-3.29-.87-.87c-4.06-4.05-10.57-4.14-14.73-.28-.1.08-.21.18-.3.28l-4.78,4.78c-.09.09-.2.2-.28.3-2.83,1.87-6.67,1.56-9.15-.93l-3.29-3.29c-2.6-2.6-2.82-6.66-.69-9.49l4.78-4.78c4.16-4.16,4.16-10.88,0-15.04l-.5-.5c-.05-.04-.09-.08-.14-.13l-3.28-3.29c-2.84-2.84-2.84-7.46,0-10.3l3.28-3.28c2.86-2.84,7.47-2.84,10.32,0l3.28,3.28.64.64c4.13,4.13,10.85,4.14,15,.03,0-.01,0-.03.03-.03l4.78-4.78s.01-.03.03-.03c2.86-2.11,6.9-1.87,9.48.71l3.29,3.29c2.48,2.49,2.79,6.33.92,9.16-.01.01-.03.01-.03.03-.09.08-.18.16-.26.25l-4.8,4.78c-.09.09-.2.2-.28.3-2.82,1.86-6.67,1.55-9.15-.93l-4.04-4.04c-4-4-10.37-4.16-14.55-.43-.17.12-.33.28-.48.43l-4.78,4.78c-.17.17-.33.34-.47.51-3.67,4.17-3.51,10.54.47,14.51l.75.76,3.29,3.29.75.73c4.16,4.16,10.88,4.16,15.04,0l4.02-4.02c2.84-2.84,7.47-2.84,10.32,0l3.28,3.28c2.82,2.82,2.84,7.37.09,10.21Z"/>
    <path class="st0" d="M43.03,85.56l3.46,3.46c2.81,2.73,7.26,2.74,10.08.05.05-.04.09-.08.14-.13l3.28-3.29.87-.87c4.06-4.05,10.57-4.14,14.73-.28.1.08.21.18.3.28l4.78,4.78c.09.09.2.2.28.3,2.83,1.87,6.67,1.56,9.15-.93l3.29-3.29c2.6-2.6,2.82-6.66.69-9.49l-4.78-4.78c-4.16-4.16-4.16-10.88,0-15.04l.5-.5c.05-.04.09-.08.14-.13l3.28-3.29c2.84-2.84,2.84-7.46,0-10.3l-3.28-3.28c-2.86-2.84-7.47-2.84-10.32,0l-3.28,3.28-.64.64c-4.13,4.13-10.85,4.14-15,.03,0-.01,0-.03-.03-.03l-4.78-4.78s-.01-.03-.03-.03c-2.86-2.11-6.9-1.87-9.48.71l-3.29,3.29c-2.48,2.49-2.79,6.33-.92,9.16.01.01.03.01.03.03.09.08.18.16.26.25l4.8,4.78c.09.09.2.2.28.3,2.82,1.86,6.67,1.55,9.15-.93l4.04-4.04c4-4,10.37-4.16,14.55-.43.17.12.33.28.48.43l4.78,4.78c.17.17.33.34.47.51,3.67,4.17,3.51,10.54-.47,14.51l-.75.76-3.29,3.29-.75.73c-4.16,4.16-10.88,4.16-15.04,0l-4.02-4.02c-2.84-2.84-7.47-2.84-10.32,0l-3.28,3.28c-2.82,2.82-2.84,7.37-.09,10.21Z"/>
  </g>
</svg>